<?xml version="1.0" encoding="utf-8"?>
<!-- Generator: Adobe Illustrator 15.1.0, SVG Export Plug-In . SVG Version: 6.00 Build 0)  -->
<!DOCTYPE svg PUBLIC "-//W3C//DTD SVG 1.1//EN" "http://www.w3.org/Graphics/SVG/1.1/DTD/svg11.dtd">
<svg version="1.1" id="Laag_1" xmlns="http://www.w3.org/2000/svg" xmlns:xlink="http://www.w3.org/1999/xlink" x="0px" y="0px"
	 width="100.678px" height="76.891px" viewBox="0 0 100.678 76.891" enable-background="new 0 0 100.678 76.891"
	 xml:space="preserve">
<g>
	<g>
		<path fill="#63D1BB" d="M96.957,18.149c0,0-0.92-7.008-3.785-10.078c-3.632-4.041-7.674-4.064-9.541-4.297
			C70.305,2.75,50.328,2.75,50.328,2.75h-0.052c0,0-19.979,0-33.306,1.023c-1.867,0.229-5.908,0.256-9.54,4.297
			c-2.839,3.096-3.785,10.078-3.785,10.078S2.75,26.36,2.75,34.571v7.699c0,8.209,0.946,16.42,0.946,16.42s0.922,7.012,3.784,10.078
			c3.633,4.041,8.363,3.914,10.486,4.352c7.622,0.768,32.354,1.02,32.354,1.02s20.005-0.023,33.328-1.047
			c1.867-0.23,5.908-0.258,9.54-4.299c2.841-3.068,3.786-10.078,3.786-10.078s0.946-8.209,0.946-16.422v-7.697
			C97.903,26.36,96.957,18.149,96.957,18.149z"/>
		<path fill="#FFFFFF" d="M50.316,76.889H50.3c-1.015-0.01-24.946-0.266-32.604-1.037l-0.142-0.014l-0.137-0.027
			c-0.271-0.057-0.668-0.105-1.126-0.168c-2.503-0.328-7.159-0.938-10.839-5.02C2.099,67.008,1.076,59.852,0.97,59.049l-0.005-0.043
			C0.926,58.662,0,50.541,0,42.27v-7.699c0-8.266,0.875-16.377,0.912-16.719l0.009-0.072C1.03,16.979,2.076,9.852,5.395,6.223
			c3.996-4.438,8.531-4.898,10.712-5.121c0.192-0.02,0.37-0.037,0.529-0.059l0.126-0.014c13.277-1.02,33.313-1.031,33.516-1.031
			h0.052c0.199,0,20.233,0.014,33.514,1.031l0.126,0.014c0.159,0.02,0.337,0.037,0.529,0.059c2.179,0.221,6.71,0.684,10.702,5.111
			c3.354,3.615,4.379,10.77,4.482,11.576l0.005,0.043c0.039,0.344,0.965,8.459,0.99,16.754v7.707c0,8.273-0.926,16.396-0.965,16.736
			l-0.007,0.053c-0.108,0.807-1.156,7.953-4.479,11.563c-3.994,4.438-8.525,4.896-10.707,5.117c-0.19,0.021-0.371,0.037-0.53,0.059
			l-0.126,0.014c-13.273,1.02-33.333,1.057-33.532,1.059L50.316,76.889L50.316,76.889z M18.372,70.393
			c7.477,0.729,31.216,0.988,31.968,0.996c0.657,0,20.135-0.049,33.047-1.035c0.178-0.021,0.371-0.041,0.58-0.063
			c1.836-0.188,4.606-0.469,7.186-3.336l0.026-0.027c1.825-1.975,2.854-6.93,3.075-8.553c0.059-0.516,0.926-8.357,0.926-16.08
			v-7.699c-0.022-7.76-0.896-15.627-0.951-16.107c-0.319-2.383-1.434-6.789-3.063-8.539L91.13,9.912
			c-2.577-2.869-5.354-3.15-7.188-3.336c-0.209-0.021-0.399-0.041-0.58-0.064C70.297,5.514,50.529,5.5,50.33,5.5H50.28
			c-0.197,0-19.969,0.016-33.032,1.012c-0.178,0.021-0.371,0.041-0.58,0.063C14.832,6.762,12.06,7.043,9.479,9.91L9.46,9.932
			c-1.828,1.992-2.855,6.924-3.082,8.553c-0.063,0.592-0.875,8.398-0.875,16.088v7.699c0,7.748,0.871,15.6,0.926,16.082
			c0.32,2.383,1.435,6.789,3.066,8.539l0.034,0.039c2.32,2.584,5.304,2.977,7.479,3.26C17.49,70.254,17.948,70.313,18.372,70.393z"
			/>
	</g>
</g>
<g>
	<polygon fill="#FFFFFF" points="38.435,20.578 38.435,56.287 68.182,38.432 	"/>
</g>
</svg>
